<svg width="30" height="30" viewBox="0 0 30 30" fill="none" xmlns="http://www.w3.org/2000/svg">
<circle cx="15" cy="15" r="15" fill="url(#paint0_linear_502_804)"/>
<path d="M12.4516 8.70947H17.8709C19.9355 8.70947 21.6129 10.3869 21.6129 12.4514V17.8708C21.6129 18.8632 21.2186 19.815 20.5169 20.5167C19.8151 21.2185 18.8634 21.6127 17.8709 21.6127H12.4516C10.3871 21.6127 8.70966 19.9353 8.70966 17.8708V12.4514C8.70966 11.459 9.10389 10.5072 9.80564 9.80546C10.5074 9.10371 11.4592 8.70947 12.4516 8.70947ZM12.3226 9.9998C11.7066 9.9998 11.1158 10.2445 10.6802 10.6801C10.2447 11.1156 9.99998 11.7064 9.99998 12.3224V17.9998C9.99998 19.2837 11.0387 20.3224 12.3226 20.3224H18C18.616 20.3224 19.2067 20.0777 19.6423 19.6421C20.0779 19.2065 20.3226 18.6158 20.3226 17.9998V12.3224C20.3226 11.0385 19.2838 9.9998 18 9.9998H12.3226ZM18.5484 10.9675C18.7623 10.9675 18.9674 11.0525 19.1186 11.2037C19.2699 11.355 19.3548 11.5601 19.3548 11.774C19.3548 11.9879 19.2699 12.193 19.1186 12.3442C18.9674 12.4955 18.7623 12.5804 18.5484 12.5804C18.3345 12.5804 18.1294 12.4955 17.9781 12.3442C17.8269 12.193 17.7419 11.9879 17.7419 11.774C17.7419 11.5601 17.8269 11.355 17.9781 11.2037C18.1294 11.0525 18.3345 10.9675 18.5484 10.9675ZM15.1613 11.9353C16.0168 11.9353 16.8373 12.2751 17.4423 12.8801C18.0472 13.4851 18.3871 14.3055 18.3871 15.1611C18.3871 16.0166 18.0472 16.8371 17.4423 17.4421C16.8373 18.047 16.0168 18.3869 15.1613 18.3869C14.3057 18.3869 13.4852 18.047 12.8803 17.4421C12.2753 16.8371 11.9355 16.0166 11.9355 15.1611C11.9355 14.3055 12.2753 13.4851 12.8803 12.8801C13.4852 12.2751 14.3057 11.9353 15.1613 11.9353ZM15.1613 13.2256C14.6479 13.2256 14.1556 13.4295 13.7927 13.7925C13.4297 14.1555 13.2258 14.6478 13.2258 15.1611C13.2258 15.6744 13.4297 16.1667 13.7927 16.5297C14.1556 16.8927 14.6479 17.0966 15.1613 17.0966C15.6746 17.0966 16.1669 16.8927 16.5299 16.5297C16.8928 16.1667 17.0968 15.6744 17.0968 15.1611C17.0968 14.6478 16.8928 14.1555 16.5299 13.7925C16.1669 13.4295 15.6746 13.2256 15.1613 13.2256Z" fill="white"/>
<defs>
<linearGradient id="paint0_linear_502_804" x1="7.8" y1="1.8" x2="22.2" y2="26.4" gradientUnits="userSpaceOnUse">
<stop stop-color="#FADC1E"/>
<stop offset="0.514362" stop-color="#F1328A"/>
<stop offset="1" stop-color="#721CCD"/>
</linearGradient>
</defs>
</svg>