<svg width="30" height="30" viewBox="0 0 30 30" fill="none" xmlns="http://www.w3.org/2000/svg">
<g clip-path="url(#clip0_2765_15)">
<path d="M30 15C30 6.71573 23.2843 0 15 0C6.71573 0 0 6.71573 0 15C0 23.2843 6.71573 30 15 30C23.2843 30 30 23.2843 30 15Z" fill="black"/>
<path d="M18.9734 9.375H20.8422L16.7594 14.0414L21.5625 20.3914H17.8011L14.8555 16.5402L11.4851 20.3914H9.6151L13.9821 15.4001L9.375 9.375H13.2307L15.8933 12.8952L18.9722 9.375H18.9734ZM18.3175 19.2728H19.353L12.6686 10.4348H11.5574L18.3175 19.2728Z" fill="white"/>
</g>
<defs>
<clipPath id="clip0_2765_15">
<rect width="30" height="30" fill="white"/>
</clipPath>
</defs>
</svg>
